<?xml version="1.0" encoding="UTF-8" standalone="no"?>
<!-- Created with Inkscape (http://www.inkscape.org/) -->

<svg version="1.1" viewBox="0 0 3370.4753 3746.1981" xmlns="http://www.w3.org/2000/svg">
  <defs>
    <style><![CDATA[
      #blouse {
        & .inner {
          animation: blouse 3s alternate infinite;
          filter: brightness(2);
        }
        & .outer {
          animation: blouse 3s alternate infinite;
        }
      }

      #face {
        animation: face 4s alternate infinite;
      }

      #hair {
        & .inner {
          animation: hair 2s alternate infinite;
          filter: brightness(2);
        }
        & .outer {
          animation: hair 2s alternate infinite;
        }
      }

      @keyframes blouse {
        from, 50% {
          fill: #91877e;
          stroke: #000;
          stroke-width:23;
        }
        to {
          fill: #FC3;
          stroke: #666A;
          stroke-width:18;
        }
      }

      @keyframes face {
        from {
          fill: #876e44;
          stroke: #000;
          stroke-width: 525;
        }
        to {
          fill: #000;
          stroke: #876e44;
          stroke-width: 600;
        }
      }

      @keyframes hair {
        from {
          fill: linear-gradient(to left, cadetblue, #137f5b);
          stroke: #000;
          stroke-width: 18;
        }
        to {
          fill: linear-gradient(to left, #137f5b, #BBB);
          stroke: #876e44;
          stroke-width: 23;
        }
      }
    ]]></style>
  </defs>
  <title>Magistrate</title>
  <g transform="translate(-981.41567,-399.07546)">
    <g id="blouse">
      <g class="outer">
        <path
          d="m 3018.8223,2542.084 c -24.9193,8.5468 -49.7905,17.2798 -74.7207,25.7422 -9.898,3.359 -19.7469,6.6086 -29.7853,9.6682 -8.4463,2.5745 -17.0164,5.0454 -25.4862,7.3376 -33.967,9.1688 -68.4604,16.2385 -103.3351,21.173 -7.7054,1.0954 -15.5439,2.0918 -23.2818,2.9721 -16.6059,1.8844 -33.2291,3.258 -49.9573,4.1631 -7.1167,0.3888 -14.3343,0.6746 -21.502,0.8793 -14.5345,0.3857 -29.2142,0.4427 -43.8026,0.1065 -7.988,-0.1742 -15.9968,-0.4703 -24.0099,-0.8819 -6.1135,-0.3208 -12.3937,-0.7047 -18.5124,-1.1523 -10.1081,-0.737 -20.2955,-1.6781 -30.3431,-2.7676 -10.6746,-1.1699 -21.3271,-2.5387 -31.9511,-4.1035 -8.2593,-1.2281 -16.6392,-2.5882 -24.912,-4.0652 -12.2101,-2.1658 -24.5697,-4.6577 -36.7188,-7.3807 -28.2518,-6.3189 -56.102,-14.091 -83.5578,-23.2695 -23.5902,-7.9027 -47.11,-16.0622 -70.6747,-24.0737 -0.352,12.5648 -0.5829,25.0643 -1.2531,37.6098 -0.336,4.3862 -0.1663,8.8662 1.1446,13.0938 2.7443,9.8264 5.4437,19.6648 8.0733,29.523 1.8342,6.9668 3.6338,14.0983 5.1458,21.1282 2.6375,12.195 4.7668,24.4997 6.4245,36.8659 0.6964,5.2438 1.3126,10.6266 1.8041,15.893 0.5221,5.6382 0.9584,11.3367 1.2651,16.9272 0.2957,5.1819 0.4811,10.3538 0.5831,15.5005 0.1313,6.8369 0.069,13.7701 -0.121,20.5465 -0.1969,6.2093 -0.5147,12.3304 -0.9766,18.5254 -0.2768,3.6047 -0.6,7.36 -0.9748,10.9746 -0.8521,8.49 -2.0102,16.9473 -3.365,25.3711 -0.2622,1.5589 -0.5652,3.34 -0.8621,4.9808 -1.467,8.199 -3.1343,16.2041 -5.0668,24.3045 -1.9224,8.0667 -4.1287,16.2223 -6.5276,24.1697 -5.1346,17.026 -11.339,33.7885 -18.438,50.0509 -6.8713,15.7631 -14.6765,31.1074 -23.1305,46.0781 -7.2526,12.9391 -14.7369,25.7465 -21.975,38.6914 -3.4023,7.1922 -0.3187,16.6224 6.5594,20.5551 3.675,2.1433 8.0644,2.3785 12.1255,2.9261 12.8849,1.8938 25.7923,3.6397 38.7034,5.3486 51.6483,6.8111 103.4781,12.3069 155.4439,16.031 102.1804,7.3993 204.8055,8.7357 307.1406,3.8694 72.5428,-3.4336 144.936,-9.9683 216.9302,-19.493 23.7835,-3.1627 47.555,-6.4174 71.3294,-9.6493 -12.3748,-22.3946 -25.3497,-44.451 -37.6862,-66.8671 -3.8219,-6.9739 -7.5038,-14.1506 -10.9407,-21.2442 -6.281,-13.0327 -11.9939,-26.3774 -17.0512,-39.9847 -6.5022,-17.4617 -11.9496,-35.4359 -16.1508,-53.6348 -0.978,-4.1884 -1.9057,-8.6011 -2.7531,-12.82 -2.3344,-11.825 -4.1771,-23.7469 -5.4922,-35.7285 -0.1945,-1.9496 -0.4389,-4.0994 -0.6196,-6.1302 -0.5471,-5.7396 -0.9726,-11.4751 -1.2769,-17.1882 -0.5423,-10.3421 -0.6998,-20.6828 -0.4785,-31.0664 0.2098,-10.1833 0.8152,-20.3882 1.7538,-30.5936 0.727,-7.8984 1.6866,-15.8494 2.8497,-23.7364 2.4166,-16.3749 5.776,-32.7657 9.9775,-48.8374 3.9198,-14.9838 8.1537,-29.8827 12.2351,-44.8228 3.9304,-14.252 7.8612,-28.5038 11.7913,-42.7558 -1.1966,0.4134 -2.3932,0.8268 -3.5898,1.2402 z" />
        <path
          d="m 2205.4961,3326.2637 -281.8406,684.7025 310.0027,119.2936 c 81.178,-261.2684 162.3546,-522.5372 243.5293,-783.8066 z"/>
        <path
          d="m 3116.1366,3322.0774 -257.8928,25.5714 237.3889,781.3642 312.3848,-113.6895 z"/>
        <path
          d="m 1964.9941,2983.4277 c -3.1725,4.8574 -6.162,9.8607 -9.9856,14.2636 -3.6807,4.6243 -6.4975,10.0275 -7.5796,15.8726 -1.298,5.9157 -2.4924,11.8539 -3.8235,17.7628 -10.6756,49.0894 -22.879,97.8333 -36.9028,146.0991 -2.4799,8.6377 -5.0831,17.2397 -7.6026,25.8654 -1.5978,5.4797 -1.604,11.3689 -0.2507,16.8996 1.9799,8.1675 7.0211,15.5652 13.9923,20.2812 4.533,3.1268 9.8365,5.0455 15.2793,5.7914 98.0275,19.5608 196.8033,35.4153 296.0767,47.1526 118.9836,14.1724 238.6408,22.7307 358.4382,25.4697 88.7862,2.0286 177.6443,0.8334 266.3441,-3.5531 90.0129,-4.4362 179.8636,-12.1254 269.3244,-23.0187 64.0031,-7.7881 127.802,-17.2532 191.3294,-28.2637 32.9867,-5.7257 65.9071,-11.8436 98.7335,-18.4252 9.5686,-2.1839 17.7826,-8.9607 22.327,-17.5854 4.1206,-7.6825 5.4381,-16.8772 3.3535,-25.3675 -1.2233,-5.3364 -3.1636,-10.4718 -4.5772,-15.7566 -13.6646,-46.2316 -25.6911,-92.9565 -36.3307,-139.99 -3.2851,-14.3867 -6.3915,-28.8658 -9.5148,-43.3122 -0.7493,-3.1732 -1.6271,-6.3972 -3.5236,-9.1029 -4.8075,-7.2431 -14.1168,-11.4017 -22.6952,-9.5456 -4.4803,1.0475 -8.9083,2.3063 -13.3729,3.4183 -34.6742,8.9815 -69.3877,17.6706 -104.3488,25.3475 -24.779,5.4986 -49.6413,10.6561 -74.559,15.4983 -14.3581,2.756 -28.7692,5.2256 -43.1536,7.8381 -41.898,7.4519 -83.9848,13.8471 -126.1831,19.2251 -20.9411,2.6547 -42.0317,5.0912 -63.0376,7.2367 -60.6441,6.2246 -121.4976,10.3335 -182.447,12.2855 -54.6108,1.7496 -109.3272,1.7827 -163.9603,0.1056 -54.5508,-1.6514 -109.0471,-5.0836 -163.3865,-10.1764 -68.5044,-6.4242 -136.8328,-15.5789 -204.672,-27.4324 -15.6619,-2.733 -31.3257,-5.5958 -46.9827,-8.4302 -1.8373,-0.3531 -3.8788,-0.7545 -5.7949,-1.1231 -39.3212,-7.6936 -78.4762,-16.1011 -117.4332,-25.5037 -26.6289,-6.3819 -53.1756,-13.3407 -79.679,-20.3518 -0.8708,-0.2297 -1.7416,-0.4595 -2.6124,-0.6894 -0.263,0.4049 -0.526,0.8099 -0.7891,1.2148 z" />
      </g>
      <g class="inner">
        <path id="path2"
          d="m 22544.6,17639.6 c -1688.8,-229.3 -3400.8,-229.3 -5089.5,0 607,1060.2 565.4,2048.4 359.5,2787.7 1415.5,-487.2 2953.3,-487.2 4368.8,0 -204.3,-739.3 -245.9,-1727.5 361.2,-2787.7 z"
          transform="matrix(0.13333333,0,0,-0.13333333,0,5333.3333)"/>
        <path id="path3"
          d="m 18159.5,14613.4 -1609.8,-5181.5 -1722.2,626.2 1959.7,4677.2 c 455.7,-51.1 915,-91.9 1372.3,-121.9 z"
          transform="matrix(0.13333333,0,0,-0.13333333,0,5333.3333)"/>
        <path id="path4" d="M 25172.1,10058.1 23450,9431.5 21840.2,14613.4 c 457.7,30 915.3,70.8 1373,122.4 z"
          transform="matrix(0.13333333,0,0,-0.13333333,0,5333.3333)"/>
        <path id="path6"
          d="m 25473.4,15930.3 c -678.2,-134.8 -1361.8,-245.5 -2038.8,-329.9 l -20.4,-2.5 c -711.5,-88.7 -1434.2,-149.8 -2149.1,-182.7 -839.2,-39.1 -1690.5,-39.1 -2530.2,0 -714,32.9 -1436.7,94 -2148.6,182.7 l -20.4,2.5 c -677,83.2 -1361,194.7 -2038.8,329.9 116.1,384.1 238,843 349.9,1373.1 472.3,-124.8 947.4,-230.9 1417.6,-319.6 h 2.1 l 21.6,-4.1 h 4.6 v 0 c 2429.6,-458.3 4923.4,-458.3 7353,0 v 0 h 4.6 l 21.6,4.1 h 2.5 c 470.2,88.7 945.4,195.6 1417.6,319.6 113.2,-530.1 235.1,-989 351.2,-1373.1 z"
          transform="matrix(0.13333333,0,0,-0.13333333,0,5333.3333)"/>
      </g>
    </g>
    <path id="face"
      d="m 24576.7,23087 c -394.8,-491.6 -866.3,-916.4 -1396.3,-1257.9 -128.2,-83.2 -261.8,-162.2 -398.2,-235.1 l -3.8,-2 c -1735.6,-931.5 -3822.4,-931.5 -5558,0 l -4.6,2.5 c -135.6,72.4 -269.2,151.4 -397.8,234.6 -529.5,341.7 -1000.6,766.4 -1395.1,1257.9 l 736.5,5918.3 c 118.4,933.9 911.8,1634.7 1853.2,1636.9 h 3975.3 c 941.4,-2.2 1734.8,-703 1853.2,-1636.9 z"
      transform="matrix(0.13333333,0,0,-0.13333333,0,5333.3333)"/>
    <g id="hair">
      <path class="inner"
        d="m 2662.584,408.10547 c -31.0201,0.79985 -61.9242,8.66029 -89.2721,23.39597 -32.5221,17.40184 -60.0058,44.07031 -78.3871,76.04879 -12.9519,22.46458 -21.3954,47.51394 -24.6639,73.23909 -2.2597,17.523 -2.1491,35.33895 0.1746,52.84935 0.1493,1.3435 0.3588,2.90959 0.4317,4.35093 0.4169,6.62269 -4.1949,13.06613 -10.4473,15.12827 -4.8782,1.82231 -10.6943,1.79005 -15.1669,-1.09423 -3.3124,-2.05222 -5.6202,-5.38391 -7.0582,-8.95073 -18.6184,-40.38887 -51.2398,-74.16865 -91.0397,-94.04345 -25.6561,-12.83814 -54.095,-20.0611 -82.7667,-21.03513 -19.7068,-0.69691 -39.5185,1.57222 -58.54,6.78165 -31.834,8.63243 -61.477,25.28885 -85.2945,48.12053 -22.9382,21.86591 -40.6001,49.27707 -50.7626,79.3099 -11.9339,34.98729 -14.0862,73.33157 -5.6564,109.35514 5.8265,25.09873 16.6296,48.99692 31.4094,70.08994 3.7346,5.80211 2.8261,14.14198 -2.1309,18.96194 -3.1247,3.4091 -7.2454,6.32305 -11.9978,6.61525 -4.3107,0.33419 -8.6573,-1.26482 -11.8839,-4.10883 -7.8169,-6.10156 -16.0111,-11.73166 -24.6402,-16.62575 -34.911,-19.94071 -75.9568,-29.1579 -116.0306,-25.43709 -42.8326,3.79848 -84.4001,21.72908 -116.156,50.79197 -26.9099,24.37769 -46.9393,56.2746 -57.1396,91.12734 -9.6206,32.50952 -10.7571,67.51878 -3.0347,100.54438 7.963,34.8318 25.4623,67.4607 50.2359,93.2259 16.1519,16.8662 35.3655,30.7176 56.2496,41.128 5.7377,3.2941 8.7524,10.6188 7.0147,17.0023 -0.9746,4.2857 -2.9356,8.6158 -6.5874,11.2618 -3.3335,2.5257 -7.6975,3.5473 -11.8149,2.8723 -2.9999,-0.5222 -5.9585,-1.0765 -8.9646,-1.4925 -17.3229,-2.5582 -34.9838,-2.8458 -52.3706,-0.7369 -33.3598,3.9681 -65.7373,16.4326 -92.9003,36.2446 -28.7108,20.6724 -51.7924,49.147 -65.8181,81.6455 -14.459,33.0551 -19.7697,70.0948 -14.9143,105.8623 5.6484,42.0122 25.0189,82.1291 54.7373,112.3993 19.9859,20.5325 44.5031,36.586 71.2345,46.8777 3.0297,1.1692 6.1949,2.4849 8.2844,5.0898 3.2358,3.6978 4.6724,8.9673 3.4418,13.7616 -1.3168,5.6005 -5.9591,10.3304 -11.6385,11.4745 -3.0876,0.7127 -6.2668,0.2993 -9.4002,0.4454 -21.4568,0.3777 -42.8723,4.1327 -63.0976,11.3373 -28.4727,10.057 -54.6587,26.62 -75.7554,48.2455 -22.5607,22.9874 -39.4635,51.5163 -48.6001,82.4135 -9.5781,32.1983 -10.9615,66.8425 -3.6567,99.6502 7.6764,34.7686 24.9116,67.3555 49.2792,93.3123 19.2647,20.5759 43.0082,36.9044 69.0692,47.6288 9.0502,3.7526 18.3902,6.779 27.8765,9.2189 2.5843,0.6878 5.1865,1.6696 7.1359,3.5668 4.2892,3.7889 6.3376,10.0595 4.7084,15.603 -1.2697,4.8132 -4.9475,8.9834 -9.7064,10.5636 -3.5209,1.2812 -7.4373,1.1515 -10.9811,0.03 -30.2649,-6.9006 -62.1483,-6.6558 -92.2744,0.8602 -27.4442,6.7837 -53.3872,19.5365 -75.5324,37.1084 -22.1767,17.5279 -40.5884,39.8263 -53.425,65.0217 -15.9384,31.0501 -23.6915,66.336 -21.7407,101.212 2.2191,42.3954 18.3542,83.9867 45.5671,116.6007 18.3508,22.1482 41.604,40.1854 67.5662,52.5533 3.199,1.6228 6.7806,2.9528 9.0283,5.9045 3.3894,4.1477 4.5723,10.2146 2.5863,15.1828 -1.8733,5.1309 -6.6289,9.1347 -12.0667,9.899 -3.2034,0.5262 -6.4266,-0.1958 -9.5109,-1.0248 -23.3855,-5.324 -47.7325,-6.5677 -71.5048,-3.2703 -30.2289,4.0724 -59.4957,15.2127 -84.7091,32.3911 -27.3735,18.5199 -50.0932,43.9288 -65.1914,73.3473 -14.9517,28.9454 -22.6235,61.6145 -22.0768,94.1916 0.4745,32.7944 9.1271,65.4847 25.2617,94.0621 6.3641,11.3644 13.9161,22.0349 22.1752,32.095 3.963,5.843 3.216,14.4603 -1.8927,19.3947 -3.8585,3.9538 -9.927,5.6078 -15.2345,3.9944 -2.9789,-0.8267 -5.5401,-2.6651 -7.8005,-4.7173 -17.3865,-14.1863 -37.1965,-25.3923 -58.3229,-32.9651 -28.1515,-10.1279 -58.6101,-13.9351 -88.3661,-10.6288 -34.3528,3.5992 -67.7364,16.3433 -95.6159,36.76 -28.8814,20.949 -52.0781,49.7484 -66.0448,82.6047 -14.70334,34.2681 -19.46459,72.7218 -13.56906,109.5416 5.1378,32.3993 18.44336,63.4895 38.48456,89.473 21.4833,28.0751 50.5321,50.359 83.3548,63.5423 19.8828,8.0279 41.0713,12.7103 62.4492,14.1838 4.9194,0.8366 9.5325,2.8338 14.3339,4.1255 205.7072,63.735 411.4122,127.4773 617.1144,191.2287 16.6924,-39.8055 31.9856,-80.2064 45.492,-121.2063 18.6057,-56.6353 34.5188,-114.1428 48.1434,-172.1737 14.9006,-63.551 27.1289,-127.7215 36.9684,-192.2479 14.5101,-95.2324 23.7427,-191.2459 28.3582,-287.46 3.1121,-65.3486 3.9927,-130.7972 2.9763,-196.2101 -0.049,-4.7267 -0.2464,-9.4601 -0.015,-14.1839 0.3858,-4.7773 1.1243,-9.5187 1.6692,-14.2796 14.066,-113.394 28.1405,-226.7869 42.2662,-340.1735 23.3938,-187.95 46.7749,-375.9017 70.1767,-563.8507 1.0455,-7.1742 2.2727,-14.3229 3.7498,-21.4213 1.2547,-6.0145 2.7184,-12.1656 4.3415,-18.1617 1.8904,-7.0204 4.0685,-14.114 6.4621,-21.0464 4.6685,-13.483 10.2977,-26.8383 16.7816,-39.6324 15.7399,-31.1447 36.6271,-59.6713 61.5369,-84.108 11.0466,-10.863 22.893,-20.9096 35.3935,-30.0613 1.075,-0.7808 2.2846,-1.6663 3.3829,-2.4382 10.9729,-7.8104 22.4273,-14.9467 34.291,-21.3235 8.9587,-4.819 18.2987,-9.2775 27.7416,-13.2297 16.9365,-7.109 34.6402,-12.7777 52.6177,-16.8663 3.9843,-0.902 8.0011,-1.7372 12.0617,-2.4998 3.9438,-0.7414 8.0684,-1.4282 12.1023,-2.0253 12.2007,-1.7949 24.6593,-2.9242 37.0482,-3.2513 13.5566,-0.3478 27.1193,-0.1829 40.6789,-0.2218 166.7904,0.02 333.581,0.037 500.3714,0.086 3.8015,0.025 7.6317,0.089 11.365,0.2381 15.9923,0.6793 31.9149,2.5209 47.6545,5.5711 15.7281,3.032 31.4014,7.3172 46.4452,12.6905 42.4965,15.1349 81.781,39.4288 114.3448,70.7082 3.9377,3.771 7.8575,7.7389 11.5452,11.6478 2.8115,3.0004 5.5769,6.0309 8.3008,9.1639 5.3065,6.0801 10.4413,12.4416 15.2704,18.9282 3.6717,4.9154 7.1182,9.8246 10.5187,14.9687 18.311,27.6694 32.2345,58.2245 41.153,90.1811 4.5076,15.9932 7.6496,32.3563 9.6169,48.8516 5.7105,45.5424 11.344,91.0945 17.0232,136.6409 22.8942,184.0115 45.7345,368.0298 68.5801,552.0474 8.2072,66.1763 16.4378,132.3497 24.5956,198.532 1.0325,8.5102 2.0994,17.0105 3.0276,25.5387 0.2146,5.9295 -0.073,12.0347 -0.1474,18.0346 -0.1656,15.0385 -0.3314,30.0774 -0.3302,45.1171 -0.06,56.2032 1.368,112.4092 4.4435,168.529 5.214,95.2398 15.062,190.2447 30.1032,284.4406 13.3587,83.5559 30.7458,166.4981 53.0532,248.1314 16.9682,62.0548 36.6999,123.4054 60.5184,183.1891 2.9005,7.3339 5.7797,14.6792 8.7389,21.9883 3.1218,6.4868 10.8819,10.5347 17.97,8.873 17.6668,-5.3284 35.2781,-10.8459 52.905,-16.3088 187.842,-58.2107 375.68,-116.4354 563.5205,-174.6515 5.9939,-1.146 12.0606,-1.1224 18.0871,-2.1005 19.5157,-2.7862 38.6216,-8.4412 56.478,-16.801 24.2483,-11.3273 46.2291,-27.5439 64.0177,-47.5563 22.2297,-24.878 38.2468,-55.349 45.6674,-87.9036 5.2181,-22.8704 6.6252,-46.6615 3.6066,-69.9464 -4.5757,-35.3827 -18.8588,-69.4666 -40.9363,-97.4983 -14.2627,-18.0776 -31.6754,-33.6644 -51.219,-45.8419 -16.4469,-10.2694 -34.4147,-18.0995 -53.1467,-23.1122 -38.6276,-10.4038 -80.4189,-8.9903 -118.1336,4.4422 -22.5103,7.9509 -43.5026,20.065 -61.8502,35.3194 -4.1353,3.4751 -10.1772,4.1925 -15.16,2.2786 -5.7943,-2.1186 -9.7899,-8.0807 -9.8318,-14.2092 -0.084,-4.1978 1.7376,-8.2626 4.5558,-11.3186 7.1391,-8.7142 13.6427,-17.9599 19.2181,-27.7531 19.4118,-33.853 28.7171,-73.4951 25.9195,-112.4495 -2.7028,-39.1419 -17.0811,-77.5105 -41.3258,-108.4137 -21.7653,-27.9763 -51.1154,-50.0122 -84.1197,-62.9645 -31.943,-12.6007 -67.1999,-16.8707 -101.189,-11.8121 -7.4946,1.0666 -14.9059,2.6365 -22.2925,4.2724 -4.7314,0.6526 -9.66,-1.2575 -12.9765,-4.6383 -4.9681,-5.0072 -5.7002,-13.5764 -1.6296,-19.341 2.0353,-3.0016 5.1378,-5.1134 8.4813,-6.4185 34.0956,-15.8 63.5033,-41.5267 83.7066,-73.2112 22.7416,-35.5678 33.8163,-78.5021 30.8292,-120.6338 -2.7707,-39.8137 -17.6547,-78.7902 -42.5896,-110.0001 -25.504,-32.0699 -61.0703,-56.0898 -100.4851,-67.3903 -30.4188,-8.8187 -62.9629,-10.2538 -94.0223,-4.0222 -3.8668,0.6693 -7.6617,1.8554 -11.5955,2.0711 -4.8195,0 -9.5175,-2.5239 -12.3805,-6.3658 -3.7475,-5.1237 -3.9145,-12.5833 -0.2792,-17.8107 2.4712,-3.6955 6.589,-6.0518 10.9159,-6.8358 15.4728,-3.9685 30.4913,-9.7365 44.5681,-17.2968 31.7338,-16.9817 58.8559,-42.6418 77.1194,-73.6933 17.8679,-29.939 27.6935,-64.6563 27.9505,-99.5335 0.3825,-33.7342 -7.905,-67.5728 -24.1294,-97.1725 -20.0732,-36.8922 -52.0979,-67.1994 -90.1809,-84.9588 -25.6029,-12.0323 -53.8019,-18.4477 -82.083,-18.8119 -2.9832,-0.1396 -6.0238,0.1073 -8.9544,-0.5685 -6.0438,-1.5736 -10.9119,-7.1089 -11.3898,-13.3843 -0.5699,-5.2899 1.8345,-10.769 6.1338,-13.9096 2.274,-1.7804 5.0972,-2.5329 7.7095,-3.6525 9.4032,-3.7996 18.5557,-8.2327 27.2693,-13.4274 33.9693,-20.123 61.8439,-50.5241 78.5174,-86.3493 14.4297,-30.6051 20.9857,-64.9332 18.4972,-98.6976 -2.7414,-38.6155 -16.8592,-76.4439 -40.5796,-107.0875 -22.051,-28.6794 -52.023,-51.2337 -85.7727,-64.2951 -29.3129,-11.4073 -61.3651,-15.7436 -92.6482,-12.3907 -6.1277,0.6119 -12.1959,1.6941 -18.2952,2.5112 -6.5739,0.4173 -13.0808,-4.0065 -15.199,-10.2306 -2.0721,-4.953 -2.1059,-10.9613 0.7896,-15.6028 1.8721,-3.0986 4.8566,-5.3707 8.1212,-6.8485 8.9513,-4.6732 17.6442,-9.866 25.8052,-15.8221 32.6934,-23.6509 58.0472,-57.4194 71.1875,-95.6057 11.8505,-33.9621 14.3525,-71.1696 6.8897,-106.37365 -6.8736,-32.77231 -22.1344,-63.78525 -44.1314,-89.05383 -22.7737,-26.3367 -52.5074,-46.66297 -85.4503,-57.9972 -39.6654,-13.71735 -83.7158,-14.55349 -123.8031,-2.04512 -23.48,7.26132 -45.5156,19.03199 -64.7856,34.26714 -2.227,1.73773 -4.8284,3.10173 -7.6767,3.38419 -4.4874,0.63078 -9.2337,-0.76617 -12.577,-3.84719 -3.7445,-2.94975 -6.8316,-7.19459 -7.1874,-12.07517 -0.3906,-4.12489 1.0477,-8.27737 3.564,-11.52444 5.0004,-7.28017 9.5633,-14.86291 13.5492,-22.74619 17.281,-33.9599 24.7384,-72.94729 20.6063,-110.86476 -3.9904,-37.89713 -19.064,-74.57528 -43.0028,-104.23688 -19.3789,-24.05276 -44.4753,-43.45271 -72.6221,-56.17155 -28.126,-12.77007 -59.2516,-18.92527 -90.1241,-17.6286 -30.0539,1.20463 -59.7785,9.40958 -86.2558,23.666 -23.3711,12.5494 -44.2261,29.7988 -60.7875,50.53286 -10.8696,13.57137 -19.9051,28.5785 -27.0695,44.41277 -3.2111,5.959 -10.7185,9.1655 -17.2469,7.37234 -4.6461,-0.9583 -9.2457,-3.50495 -11.57,-7.78264 -2.0502,-3.49915 -2.522,-7.76201 -1.718,-11.701 1.899,-13.81571 2.4935,-27.82224 1.5209,-41.74024 -1.9672,-29.33093 -10.4474,-58.25221 -24.9742,-83.83102 -17.0801,-30.25741 -42.1731,-55.97999 -72.1404,-73.59333 -28.9517,-17.04763 -62.2892,-26.61933 -95.8914,-27.31813 -2.9111,-0.0908 -5.8237,-0.13133 -8.736,-0.0949 z" />
      <path class="outer"
        d="m 32271.4,17793.1 c -1.1,-627.7 -488.4,-1147.2 -1114.7,-1188.3 -32.9,-2 -65.5,-8 -97,-17.9 l -4452.1,-1380.1 c -337.4,837.5 -1165,3283.3 -1086.3,6986 0.3,20 -0.8,40 -3.4,59.9 l -93.2,749 c -0.8,11.9 -2.1,23.9 -4.1,35.7 v 2.5 l -754,6068.2 c -170.3,1350.6 -1317.8,2364.2 -2679.1,2366.3 h -3975.3 c -1361.3,-2.1 -2508.9,-1015.7 -2679.2,-2366.3 l -754.7,-6068.2 v -2.9 c -2,-11.8 -3.4,-23.8 -4.2,-35.8 l -93.2,-748.9 c -2.6,-19.9 -3.7,-39.9 -3.3,-59.9 76.9,-3689.4 -749,-6145.6 -1086.8,-6985.6 l -4452.13,1379.7 c -31.47,9.9 -64.03,15.9 -96.95,17.9 -656.3,42.5 -1153.83,609.1 -1111.27,1265.4 42.57,656.3 609.11,1153.8 1265.41,1111.2 252.65,-16.3 493.51,-112.8 687.6,-275.4 175.83,-148 438.34,-125.4 586.24,50.5 130.3,154.8 130.3,380.9 0,535.8 -422.35,504.1 -356.07,1255.2 148.1,1677.5 214.3,179.6 485.1,278.1 764.8,278.1 97.1,-0.2 193.7,-12.1 287.9,-35.4 223,-55.7 448.9,79.8 504.6,302.8 48.8,195.3 -49.3,397.6 -232.9,480.3 -599.3,271.4 -865.1,977.3 -593.6,1576.6 235.7,520.3 807.5,800.1 1363,666.9 223.4,-54.3 448.6,82.9 502.8,306.4 54.2,223.5 -83,448.6 -306.4,502.9 v 0 c -638.9,157.2 -1029.3,802.6 -872,1441.4 131,532 607.9,906.1 1155.7,906.5 h 17.9 c 229.8,-2.9 418.4,181.1 421.3,410.8 2.2,174.8 -105.1,332.4 -268.6,394.3 -617.4,226.7 -934.2,910.9 -707.5,1528.3 201.4,548.8 771.5,870.2 1345.4,758.5 203.8,-38 404.4,79.8 470.6,276.3 l 6.2,19.2 c 66.6,196.8 -22.2,412.6 -208,505.5 -589.8,291.6 -831.5,1006.1 -539.9,1595.8 291.6,589.8 1006.1,831.5 1595.8,539.9 77.2,-38.2 150.1,-84.6 217.3,-138.5 162.7,-129.7 396.3,-119.2 546.7,24.5 l 15.8,14.6 c 149.5,142.1 172.3,372.2 53.7,540.9 -377.7,538.7 -247.3,1281.6 291.4,1659.3 538.6,377.7 1281.5,247.3 1659.3,-291.4 43.4,-62 80.9,-127.9 111.8,-197 85.8,-187.6 295.2,-285 493.9,-229.7 l 11.7,3.3 c 202.8,55.8 332.1,254.2 301.2,462.3 -8.8,59.8 -13.2,120.1 -13.3,180.6 0,654.9 530.9,1185.8 1185.8,1185.8 655,0 1185.9,-530.9 1185.9,-1185.8 -0.1,-60.5 -4.5,-120.8 -13.3,-180.6 -31.7,-208.3 97.3,-407.4 300.4,-463.5 l 15,-4.2 c 198,-54.8 406.3,43.1 490.5,230.5 268.9,600.5 973.7,869.2 1574.1,600.3 600.5,-268.9 869.2,-973.6 600.3,-1574.1 -30.9,-69.1 -68.4,-135.1 -111.9,-197 -118.6,-168.7 -95.8,-398.9 53.7,-540.9 l 15.8,-14.6 c 150.5,-143.8 384,-154.2 546.8,-24.6 210.1,168.8 471.8,260.5 741.4,259.7 657.9,0 1191.3,-533.3 1191.3,-1191.2 0,-451.7 -255.4,-864.5 -659.5,-1066.1 -186.1,-94.4 -274.7,-311.1 -208.1,-508.8 l 5,-15.9 c 66.9,-196.3 268.1,-313.4 471.9,-274.6 646.6,121.1 1269,-304.9 1390.1,-951.6 106.3,-567.8 -210.1,-1130.1 -750.6,-1333.9 -215.1,-80.9 -324,-320.8 -243.1,-535.9 61.6,-163.8 219.1,-271.6 394.1,-269.7 h 17.5 c 657.9,-1.4 1190.1,-535.9 1188.6,-1193.8 -1.2,-547.3 -375.1,-1023.3 -906.5,-1154.1 -223.5,-54.2 -360.7,-279.4 -306.4,-502.9 54.2,-223.4 279.3,-360.6 502.8,-306.4 639.8,153.5 1282.8,-240.8 1436.2,-880.5 133.3,-555.5 -146.5,-1127.3 -666.9,-1363 -209.8,-93.7 -303.9,-339.8 -210.2,-549.6 82.9,-185.6 287.7,-284.1 484.4,-233.1 638.4,159.3 1284.9,-229.1 1444.2,-867.4 23.5,-94.4 35.4,-191.2 35.4,-288.4 -0.1,-279.9 -98.8,-550.9 -278.8,-765.2 -147.9,-175.9 -125.3,-438.3 50.5,-586.3 154.8,-130.3 381,-130.3 535.8,0 504.6,422.1 1255.9,355.3 1678,-149.3 179.2,-214.2 277.4,-484.4 277.6,-763.6 h -0.8"
        transform="matrix(0.13333333,0,0,-0.13333333,0,5333.3333)" />
    </g>
  </g>
</svg>