<?xml version="1.0" encoding="UTF-8" standalone="no"?>
<!-- Created with Inkscape (http://www.inkscape.org/) -->

<svg
   version="1.1"
   id="svg1"
   viewBox="0 0 1994.3511 1370.1743"
   sodipodi:docname="svg.svg"
   inkscape:version="1.4.2 (ebf0e940d0, 2025-05-08)"
   xmlns:inkscape="http://www.inkscape.org/namespaces/inkscape"
   xmlns:sodipodi="http://sodipodi.sourceforge.net/DTD/sodipodi-0.dtd"
   xmlns="http://www.w3.org/2000/svg"
   xmlns:svg="http://www.w3.org/2000/svg">
  <defs
     id="defs1" />
  <sodipodi:namedview
     id="namedview1"
     pagecolor="#ffffff"
     bordercolor="#000000"
     borderopacity="0.25"
     inkscape:showpageshadow="2"
     inkscape:pageopacity="0.0"
     inkscape:pagecheckerboard="0"
     inkscape:deskcolor="#d1d1d1"
     inkscape:zoom="0.37462498"
     inkscape:cx="-400.40042"
     inkscape:cy="928.92898"
     inkscape:window-width="3440"
     inkscape:window-height="1361"
     inkscape:window-x="0"
     inkscape:window-y="282"
     inkscape:window-maximized="1"
     inkscape:current-layer="group-R5">
    <inkscape:page
       x="0"
       y="0"
       inkscape:label="1"
       id="page1"
       width="1994.3511"
       height="1370.1743"
       margin="0"
       bleed="0" />
  </sodipodi:namedview>
  <g
     id="g1"
     inkscape:groupmode="layer"
     inkscape:label="1"
     transform="translate(-416.59861,-444.18903)">
    <g
       id="group-R5"
       transform="rotate(-20.875733,1333.337,1333.3343)"
       style="stroke:#ffffff;stroke-width:15;stroke-linecap:round;stroke-linejoin:miter;stroke-dasharray:none;stroke-opacity:1;paint-order:stroke fill markers">
      <path
         id="path2"
         d="m 5085.64,8707.1 c 63.29,63.3 63.28,165.9 0,229.2 -63.29,63.3 -165.9,63.3 -229.18,0 -63.29,-63.3 -63.28,-165.9 0,-229.2 63.28,-63.3 165.89,-63.3 229.18,0"
         style="fill:#231f20;fill-opacity:1;fill-rule:nonzero;stroke:#ffffff;stroke-width:112.5;stroke-linecap:round;stroke-linejoin:miter;stroke-dasharray:none;stroke-opacity:1;paint-order:stroke fill markers"
         transform="matrix(0.13333333,0,0,-0.13333333,0,2666.6667)" />
      <path
         id="path4"
         d="m 11480.5,7179.6 c -70.3,27.7 -149.9,-6.8 -177.7,-77.2 -27.7,-70.4 6.9,-150 77.3,-177.7 70.3,-27.8 149.9,6.8 177.7,77.2 27.7,70.4 -6.9,149.9 -77.3,177.7"
         style="fill:#231f20;fill-opacity:1;fill-rule:nonzero;stroke:#ffffff;stroke-width:112.5;stroke-linecap:round;stroke-linejoin:miter;stroke-dasharray:none;stroke-opacity:1;paint-order:stroke fill markers"
         transform="matrix(0.13333333,0,0,-0.13333333,0,2666.6667)" />
      <path
         id="path5"
         d="m 11708.1,7526.7 c 21.4,-9.2 43.5,-18.4 65.4,-27 250.2,-98.7 512.4,-148.7 779.2,-148.7 647.8,0.1 1239.2,285.9 1633.7,762 -946.3,171.8 -2008,-282.8 -2548.3,-563.5 22.5,-5 44.6,-12 66.2,-21.1 l 3.8,-1.7"
         style="fill:#231f20;fill-opacity:1;fill-rule:nonzero;stroke:#ffffff;stroke-width:112.5;stroke-linecap:round;stroke-linejoin:miter;stroke-dasharray:none;stroke-opacity:1;paint-order:stroke fill markers"
         transform="matrix(0.13333333,0,0,-0.13333333,0,2666.6667)" />
      <path
         style="fill:#231f20;fill-opacity:1;fill-rule:nonzero;stroke:#ffffff;stroke-width:112.5;stroke-linecap:round;stroke-linejoin:miter;stroke-dasharray:none;stroke-opacity:1;paint-order:stroke fill markers"
         d="m 4979.1865,8357.8285 c 236.8046,-176.1009 494.202,-321.1663 769.5135,-433.1285 420.7,-171.2 865.02,-258.3 1320.63,-259 455.7,-0.7 899.92,85.1 1320.3,255 435.5,176.1 825.95,435 1160.49,769.5 423.49,423.5 732.48,950.6 893.68,1524.5 118.5,421.7 156.5,864.6 113.4,1300.5 -80,795.294 -289.942,649.95 -507.842,601.75 -184.6898,-40.9 -234.4192,-225.004 -234.538,-676.75 -0.2167,-824.15 -202.23,-1631.7 -792.6,-2222.1 C 8055.5065,8251.4163 6541.4059,8156.2945 5461.2856,8930.7696 5423.9341,8954.4676 5255.9005,8773.7969 5133.83,8658.9 5000.6938,8533.5877 4940.9536,8456.6713 4979.1865,8357.8285 Z"
         transform="matrix(0.13333333,0,0,-0.13333333,0,2666.6667)"
         id="path29"
         sodipodi:nodetypes="ccscccccsccsc" />
      <path
         id="path8"
         style="fill:#231f20;fill-opacity:1;fill-rule:nonzero;stroke:#ffffff;stroke-width:150.00000375;stroke-linecap:round;stroke-linejoin:miter;stroke-dasharray:none;stroke-opacity:1;paint-order:stroke fill markers"
         transform="matrix(0.13333333,0,0,-0.13333333,0,2666.6667)"
         d="m 11611.4,6980.8 c -39.5,-100 -152.5,-149.1 -252.5,-109.7 -100,39.4 -149.1,152.4 -109.7,252.4 39.5,100 152.5,149.1 252.5,109.7 100,-39.4 149.1,-152.4 109.7,-252.4 z m 3023.3,5869.9 c 30.4,77.2 117.6,115.1 194.8,84.7 77.1,-30.5 115,-117.7 84.6,-194.8 -30.4,-77.2 -117.6,-115.1 -194.8,-84.7 -77.2,30.5 -115.1,117.7 -84.6,194.8 z m -195.1,-1313.8 c -30.5,-77.2 -117.7,-115.1 -194.8,-84.7 -77.2,30.4 -115.1,117.6 -84.7,194.8 30.5,77.2 117.7,115.1 194.8,84.6 77.2,-30.4 115.1,-117.6 84.7,-194.7 z m -569.6,947.2 -97.4,-246.9 c -32,-81.3 -123.8,-121.2 -205.1,-89.1 l -94.8,37.3 c -81.3,32.1 -121.1,123.9 -89.1,205.1 l 97.3,247 c -77.9,105.7 -101.5,247.9 -49.8,379.2 76.5,193.9 289.6,293.3 485.4,231.5 l 51.8,-20.4 c 185.3,-88.5 273.3,-306.5 196.8,-500.5 -51.7,-131.2 -166,-219.1 -295.1,-243.2 z m -97.6,2408.9 -523.8,203.9 c 60.5,63.3 96.8,149.7 94.1,244.2 l -4.5,157.5 801.1,-311.9 c 36,-14 61.3,-43.4 71.7,-77.7 l -134,-3.8 c -138.9,-4 -255.7,-91.1 -304.6,-212.2 z m 229.8,-88.8 -0.4,11 c -1.9,66.7 50.7,122.3 117.4,124.2 l 54.1,1.6 -25.1,-64.6 c -22.9,-58.7 -86.6,-89.4 -146,-72.2 z m 313.3,-996.5 -163.8,-4.7 c -46.8,-1.4 -88,24.1 -109.2,62.5 92.1,3.1 185.8,-15.5 273,-57.8 z m -25.4,973.3 57.4,147.3 c 35.3,-20.2 59.7,-57.7 61,-101.4 l 18.4,-644.6 h -329.7 c -22.4,0.9 -44.8,0.8 -67.1,0 h -10.1 l -11.1,384.7 c 122.4,12.7 233.5,91.5 281.2,214 z m -1118,-1353.7 c -30.4,-77.2 -117.6,-115.1 -194.8,-84.6 -77.1,30.4 -115,117.6 -84.6,194.8 30.4,77.1 117.6,115 194.8,84.6 77.1,-30.4 115,-117.7 84.6,-194.8 z m -474.5,-1203.7 c -30.4,-77.2 -117.7,-115.1 -194.8,-84.7 -77.2,30.5 -115.1,117.7 -84.7,194.8 30.5,77.2 117.7,115.1 194.8,84.7 77.2,-30.5 115.1,-117.7 84.7,-194.8 z m 383.1,3028.8 c 0.7,12.2 3.3,24.4 8,36.4 l 59.9,154 c 5.5,14.1 13.5,26.6 23.2,37.3 l 3,-106.4 c 1.7,-58.8 -38.9,-108.9 -94.1,-121.3 z m -74.1,285.7 -87,-223.5 c -8.9,-23 -15,-46.3 -18.8,-69.7 l -632.9,-18.1 c 82,99.9 103.1,242.4 42,365.7 l -20.8,41.9 756.8,21.7 c 11.8,0.3 23.2,-1.2 34.1,-4 -31,-31.7 -56.3,-70 -73.4,-114 z m -917.4,-148.1 -51.5,-25.6 -4.1,141.8 c -1.5,51.9 30.1,97 75.6,115.4 l 34.6,-69.7 c 29.6,-59.8 5.1,-132.3 -54.6,-161.9 z m -223.5,148.8 6.9,-239.8 c 0.1,-5.3 0.8,-10.5 1.2,-15.8 l -318.5,-157.9 c -15.6,144.1 -102.5,267 -225.3,333.6 -1.3,2.3 -2.6,4.6 -3.9,6.8 l 582.4,288.7 c 11.7,5.9 24,9.5 36.3,11.3 -51.3,-61.3 -81.5,-140.7 -79.1,-226.9 z m -548.2,-1822.4 c 69.3,-69.4 69.3,-181.9 0,-251.2 -69.4,-69.4 -181.9,-69.4 -251.2,-0.1 -69.4,69.4 -69.4,181.9 0,251.3 69.3,69.3 181.8,69.3 251.2,0 z m -395.4,1179.6 c -74.9,78.5 -91.1,192.4 -48.7,286.3 3.7,-9.4 7.6,-18.8 12.2,-28 l 106.6,-215 c 25.1,-50.7 61.4,-92.2 104.2,-123.4 -59.9,3.2 -118.9,26.8 -165.4,71.2 z m -423.4,-1092.2 c -118,-118 -283.4,-159.5 -434.9,-124.7 l -221.99,-222 c -73.05,-73 -191.46,-73 -264.51,0 l -85.23,85.2 c -73.05,73.1 -73.05,191.5 0,264.5 l 222.03,222.1 c -34.78,151.4 6.71,316.8 124.68,434.8 174.42,174.4 452.42,181.7 635.72,22.4 l 46.5,-46.6 c 159.4,-183.3 152,-461.3 -22.3,-635.7 z m -263.4,-1420.9 c -69.4,-69.3 -181.9,-69.3 -251.26,0 -69.37,69.4 -69.37,181.9 0.01,251.3 69.35,69.3 181.85,69.3 251.25,0 69.3,-69.4 69.3,-181.9 0,-251.3 z m -735.17,2899.6 c 69.36,69.4 181.84,69.4 251.22,0 69.36,-69.4 69.36,-181.9 0,-251.2 -69.38,-69.4 -181.86,-69.4 -251.22,0 -69.38,69.3 -69.38,181.8 0,251.2 z m -830.99,-1333.4 c -69.37,-69.4 -181.85,-69.4 -251.22,0 -69.38,69.3 -69.38,181.8 0.01,251.2 69.36,69.4 181.84,69.4 251.21,0 69.37,-69.4 69.37,-181.9 0,-251.2 z M 4808.27,8984.5 c 89.9,89.9 235.66,89.9 325.56,0 89.89,-89.9 89.89,-235.7 0,-325.6 -89.9,-89.9 -235.66,-89.9 -325.55,0 -89.89,89.9 -89.9,235.7 -0.01,325.6 z M 15427.6,8334.2 c 152.8,387.5 224.8,793.6 214.2,1207.1 -10.3,399 -96.8,787.8 -257.2,1155.4 -155.7,356.7 -373.5,676.2 -647.5,950.4 l 345.9,877.3 c 99.5,252.4 -24.5,537.6 -276.8,637.1 l -184.7,72.8 31.2,79.3 c 36.9,93.4 -9,199 -102.4,235.8 l -135.9,53.5 c 50.6,32.5 93.6,77.5 124.4,132.5 l 145.7,197.4 c 2.6,18.9 4.1,38.1 3.6,57.7 l -22.7,792.4 c -4.6,158.7 -117.6,288.4 -265.9,321 10.1,144.2 -73.5,284.4 -215.3,339.6 l -738.7,287.5 c -53.4,20.8 -108.8,27 -162,20.8 -61.9,97.9 -172,161.8 -296.2,158.2 l -792.4,-22.6 c -14.7,-0.5 -29,-2.1 -43.1,-4.3 -99.2,110.6 -263.2,146.7 -402.8,77.5 l -586.3,-290.6 -264.4,-191.7 c -3.4,-5.7 -6.5,-11.5 -9.6,-17.4 -33.3,-19.1 -64.6,-42.7 -93.1,-71.2 -68.5,-68.5 -109.9,-153.9 -124.4,-242.8 l -122.1,122.1 c -84,84 -220.2,84 -304.1,0 l -71.3,-71.2 -166,166 c -226.94,226.9 -594.82,226.9 -821.72,0 l -788.74,-788.7 c -426.56,167.9 -875.82,253.7 -1336.19,254.4 -474.44,0.7 -936.97,-88.6 -1374.72,-265.6 -453.61,-183.4 -860.24,-453 -1208.58,-801.3 -348.35,-348.4 -617.94,-755 -801.29,-1208.6 -176.97,-437.7 -266.32,-900.3 -265.6,-1374.7 0.74,-474.3 91.44,-936.9 269.64,-1374.9 184.56,-453.7 455.08,-860.7 804.07,-1209.6 30.2,-30.3 60.94,-59.9 92.17,-89.1 109.89,-102.5 250.91,-146.6 387.64,-136.8 245.4994,109.0162 404.7627,300.9162 477.79,575.7 -13.62,119.4 -68.73,234.2 -162.16,321.7 -21.31,19.9 -42.31,40.3 -62.98,60.9 -1022.77,1022.8 -1025.83,2683.9 -6.81,3702.9 792.12,792.1 1972.19,966.5 2938.86,524.6 6.87,-7.6 13.94,-15.2 21.28,-22.5 l 1494.42,-1494.4 c 171.42,-171.4 449.32,-171.4 620.82,0 l 1113.2,1113.2 c 226.9,226.9 226.9,594.8 0,821.7 l -166,166 71.2,71.3 c 84,83.9 84,220.1 0,304.1 l -122.1,122.2 c 88.9,14.4 174.2,55.8 242.8,124.3 8.7,8.7 16.8,17.8 24.5,27 l 538.5,266.9 c 62.2,-54.7 144.2,-87.2 233.4,-84.7 l 741.4,21.2 c 36.8,-50.2 87.6,-91.1 150,-115.3 l 639.1,-248.8 14.1,-494.1 42.6,-290.9 -97.7,38.5 c -93.4,36.8 -199,-9 -235.8,-102.5 l -31.3,-79.2 -184.7,72.8 c -252.4,99.5 -537.6,-24.4 -637.1,-276.8 l -488.1,-1238.3 c -75.2,-190.6 18.4,-406.1 209.1,-481.3 l 1662.2,-655.3 c 8.2,-3.2 16.4,-6.2 24.6,-8.9 668.4,-600.7 930.7,-1574.4 583.4,-2455.5 C 14166.1,7522 12877,6964.7 11739.4,7413.2 c -23,9 -45.8,18.5 -68.5,28.3 -0.9,0.4 -1.9,0.8 -2.9,1.3 -144.1,61.1 -310.9,-4.4 -378.4,-145.6 L 11168.5,7044 c -72.5,-151.5 -7.1,-334.4 146.4,-402.6 1,-0.5 2.1,-1 3.2,-1.5 33.2,-14.4 66.5,-28.2 100.1,-41.4 388.2,-153.1 794.9,-225.7 1208.9,-216 399.6,9.4 788.9,94.9 1156.9,254.2 368.1,159.2 696.6,384.3 976.5,669 289.9,295 514.4,641.1 667.1,1028.5 m -1929.4,4644 c -45.5,-115.3 -24.8,-240.2 43.7,-333.1 l -85.5,-216.9 c -28.1,-71.3 6.9,-152 78.3,-180.1 l 77,-30.4 c -71.3,28.1 -106.4,108.8 -78.2,180.1 l 85.5,217 c -68.5,92.8 -89.2,217.8 -43.8,333 65.1,165 242.6,252.1 410,208.1 -12.1,6.5 -24.6,12.4 -37.6,17.6 -178,70.2 -379.3,-17.3 -449.4,-195.3 m -3109.6,1492.3 c 126.5,-160.8 115.8,-394.5 -32.6,-542.8 -103.6,-103.7 -248.9,-140.1 -381.9,-109.6 l -195.02,-195 c -64.16,-64.1 -168.18,-64.1 -232.34,0 l 69.29,-69.3 c 64.16,-64.1 168.18,-64.1 232.34,0 l 195.03,195.1 c 133,-30.6 278.3,5.9 381.9,109.5 160.1,160 160.1,419.5 0,579.6 -11.7,11.8 -24,22.5 -36.7,32.5 m 5841.9,-9369.3 358.7,505.6 -282.5,-122.7 269.8,527.6 -184.4,-80.1 127.9,596.6 -239.6,-140.3 36,343.2 c -220.9,269.7 -588.4,645.1 -1119.7,963.4 -108.5,-161.8 -231.9,-313.6 -369.9,-454 -94.4,-96 -194.3,-185.4 -299.2,-268 1860,-881.2 1173.4,-2879.7 1141.9,-2968.4 l 853.6,767.1 -326.8,-20.7 356.6,467.4 -322.4,-116.7" />
    </g>
  </g>
</svg>
